<svg width="84" height="84" viewBox="0 0 84 84" fill="none" xmlns="http://www.w3.org/2000/svg">
<path d="M80.5 0H73.5H10.5H3.5C1.4 0 0 1.4 0 3.5C0 5.25 1.4 7 3.5 7H7V84H14V77H70V84H77V7H80.5C82.25 7 84 5.6 84 3.5C84 1.4 82.6 0 80.5 0ZM14 70V7H70V70H14Z" fill="#566465"/>
<path d="M17.5 35H66.5V10.5H17.5V35ZM21 14H63V31.5H21V14Z" fill="#566465"/>
<path d="M47.25 17.4999H36.75C35.7 17.4999 35 18.1999 35 19.2499C35 20.2999 35.7 20.9999 36.75 20.9999H47.25C48.3 20.9999 49 20.2999 49 19.2499C49 18.1999 48.3 17.4999 47.25 17.4999Z" fill="#566465"/>
<path d="M17.5 62.9999H66.5V38.4999H17.5V62.9999ZM21 41.9999H63V59.4999H21V41.9999Z" fill="#566465"/>
<path d="M47.25 45.5001H36.75C35.7 45.5001 35 46.2001 35 47.2501C35 48.3001 35.7 49.0001 36.75 49.0001H47.25C48.3 49.0001 49 48.3001 49 47.2501C49 46.2001 48.3 45.5001 47.25 45.5001Z" fill="#566465"/>
</svg>
