<svg width="84" height="84" viewBox="0 0 84 84" fill="none" xmlns="http://www.w3.org/2000/svg">
<path d="M38.5005 35.0004H35.0005V42.0004H38.5005V35.0004Z" fill="#566465"/>
<path d="M49.0005 35.0004H45.5005V42.0004H49.0005V35.0004Z" fill="#566465"/>
<path d="M49.0005 17.4996H45.5005V24.4996H49.0005V17.4996Z" fill="#566465"/>
<path d="M38.5005 17.4996H35.0005V24.4996H38.5005V17.4996Z" fill="#566465"/>
<path d="M38.5005 45.5004H35.0005V52.5004H38.5005V45.5004Z" fill="#566465"/>
<path d="M49.0005 45.5004H45.5005V52.5004H49.0005V45.5004Z" fill="#566465"/>
<path d="M38.5005 56.0004H35.0005V63.0004H38.5005V56.0004Z" fill="#566465"/>
<path d="M49.0005 56.0004H45.5005V63.0004H49.0005V56.0004Z" fill="#566465"/>
<path d="M80.5 77H66.5V31.5C66.5 29.4 65.1 28 63 28V10.5C63 8.4 61.6 7 59.5 7H49V1.75C49 0.7 48.3 0 47.25 0C46.2 0 45.5 0.7 45.5 1.75V7H38.5V1.75C38.5 0.7 37.8 0 36.75 0C35.7 0 35 0.7 35 1.75V7H24.5C22.4 7 21 8.4 21 10.5V28C18.9 28 17.5 29.4 17.5 31.5V77H3.5C1.4 77 0 78.4 0 80.5V84H84V80.5C84 78.4 82.6 77 80.5 77ZM28 14H56V28H28V14ZM45.5 77H38.5V70H45.5V77ZM59.5 77H49V66.5H35V77H24.5V31.5H59.5V77Z" fill="#566465"/>
</svg>
