<svg width="84" height="84" viewBox="0 0 84 84" fill="none" xmlns="http://www.w3.org/2000/svg">
<path d="M84 42V35C84 15.75 65.1 0 42 0C18.9 0 0 15.75 0 35V42H12.6V52.85C10.08 53.55 8.4 55.65 8.4 57.75C8.4 60.55 11.34 63 14.7 63C18.06 63 21 60.55 21 57.75C21 55.3 19.32 53.55 16.8 52.85V42H33.6V73.5H29.4C26.88 73.5 25.2 74.9 25.2 77V84H58.8V77C58.8 74.9 57.12 73.5 54.6 73.5H50.4V42H84ZM14.7 59.5C13.44 59.5 12.6 58.8 12.6 57.75C12.6 56.7 13.44 56 14.7 56C15.96 56 16.8 56.7 16.8 57.75C16.8 58.8 15.96 59.5 14.7 59.5ZM42 7C56.28 7 68.04 14.35 73.08 24.5H10.92C15.96 14.35 27.72 7 42 7ZM8.4 35C8.4 32.55 8.82 30.1 9.66 28H74.76C75.6 30.1 76.02 32.55 76.02 35H8.4ZM54.6 77V80.5H29.4V77H37.8V42H46.2V77H54.6Z" fill="#566465"/>
</svg>
