<svg width="84" height="84" viewBox="0 0 84 84" fill="none" xmlns="http://www.w3.org/2000/svg">
<path d="M80.5 38.5H10.5V10.5C10.5 6.65 13.65 3.5 17.5 3.5C21.35 3.5 24.5 6.65 24.5 10.5V14.35C23.1 14.7 21.7 16.1 21.35 17.5H31.15C30.8 16.1 29.4 14.7 28 14.35V10.5C28 4.55 23.45 0 17.5 0C11.55 0 7 4.55 7 10.5V38.5H3.5C1.4 38.5 0 39.9 0 42V56C0 63.7 4.2 70.7 10.5 74.2V77C10.5 80.85 13.65 84 17.5 84C21.35 84 24.5 80.85 24.5 77H59.5C59.5 80.85 62.65 84 66.5 84C70.35 84 73.5 80.85 73.5 77V74.2C79.8 70.7 84 63.7 84 56V42C84 39.9 82.6 38.5 80.5 38.5ZM17.5 80.5C15.4 80.5 14 79.1 14 77V75.95C16.1 76.65 18.55 77 21 77C21 79.1 19.6 80.5 17.5 80.5ZM70 77C70 79.1 68.6 80.5 66.5 80.5C64.4 80.5 63 79.1 63 77C65.45 77 67.9 76.65 70 75.95V77ZM77 56C77 63.7 70.7 70 63 70H21C13.3 70 7 63.7 7 56V52.5H77V56ZM77 49H7V45.5H77V49Z" fill="#566465"/>
</svg>
