<svg width="84" height="84" viewBox="0 0 84 84" fill="none" xmlns="http://www.w3.org/2000/svg">
<path d="M81.2 24.5H53.2V21C53.2 20.0717 52.905 19.1815 52.3799 18.5251C51.8548 17.8687 51.1426 17.5 50.4 17.5C49.6574 17.5 48.9452 17.8687 48.4201 18.5251C47.895 19.1815 47.6 20.0717 47.6 21V24.5H44.8V8.75C44.8 8.28587 44.9475 7.84075 45.21 7.51256C45.4726 7.18437 45.8287 7 46.2 7C46.5713 7 46.9274 7.18437 47.1899 7.51256C47.4525 7.84075 47.6 8.28587 47.6 8.75V10.5C47.6 11.4283 47.895 12.3185 48.4201 12.9749C48.9452 13.6313 49.6574 14 50.4 14C51.1426 14 51.8548 13.6313 52.3799 12.9749C52.905 12.3185 53.2 11.4283 53.2 10.5V8.75C53.2 6.42936 52.4625 4.20376 51.1497 2.56282C49.837 0.921872 48.0565 0 46.2 0C44.3435 0 42.563 0.921872 41.2503 2.56282C39.9375 4.20376 39.2 6.42936 39.2 8.75V24.5H36.4V21C36.4 20.0717 36.105 19.1815 35.5799 18.5251C35.0548 17.8687 34.3426 17.5 33.6 17.5C32.8574 17.5 32.1452 17.8687 31.6201 18.5251C31.095 19.1815 30.8 20.0717 30.8 21V24.5H2.8C2.05739 24.5 1.3452 24.8687 0.820101 25.5251C0.294999 26.1815 0 27.0717 0 28V38.5C0 39.4283 0.294999 40.3185 0.820101 40.9749C1.3452 41.6313 2.05739 42 2.8 42V80.5C2.8 81.4283 3.095 82.3185 3.6201 82.9749C4.1452 83.6313 4.85739 84 5.6 84H78.4C79.1426 84 79.8548 83.6313 80.3799 82.9749C80.905 82.3185 81.2 81.4283 81.2 80.5V42C81.9426 42 82.6548 41.6313 83.1799 40.9749C83.705 40.3185 84 39.4283 84 38.5V28C84 27.0717 83.705 26.1815 83.1799 25.5251C82.6548 24.8687 81.9426 24.5 81.2 24.5ZM5.6 31.5H78.4V35H5.6V31.5ZM8.4 42H39.2V77H8.4V42ZM75.6 77H44.8V42H75.6V77Z" fill="#566465"/>
<path d="M33.6003 48.9996C32.8577 48.9996 32.1455 49.3684 31.6204 50.0248C31.0953 50.6811 30.8003 51.5714 30.8003 52.4996V59.4996C30.8003 60.4279 31.0953 61.3181 31.6204 61.9745C32.1455 62.6309 32.8577 62.9996 33.6003 62.9996C34.3429 62.9996 35.0551 62.6309 35.5802 61.9745C36.1053 61.3181 36.4003 60.4279 36.4003 59.4996V52.4996C36.4003 51.5714 36.1053 50.6811 35.5802 50.0248C35.0551 49.3684 34.3429 48.9996 33.6003 48.9996Z" fill="#566465"/>
<path d="M50.3996 62.9996C51.1422 62.9996 51.8544 62.6309 52.3795 61.9745C52.9046 61.3181 53.1996 60.4279 53.1996 59.4996V52.4996C53.1996 51.5714 52.9046 50.6811 52.3795 50.0248C51.8544 49.3684 51.1422 48.9996 50.3996 48.9996C49.657 48.9996 48.9448 49.3684 48.4197 50.0248C47.8946 50.6811 47.5996 51.5714 47.5996 52.4996V59.4996C47.5996 60.4279 47.8946 61.3181 48.4197 61.9745C48.9448 62.6309 49.657 62.9996 50.3996 62.9996Z" fill="#566465"/>
</svg>
