<svg width="84" height="84" viewBox="0 0 84 84" fill="none" xmlns="http://www.w3.org/2000/svg">
<path d="M42 0C32.5746 0 23.5353 3.24499 16.8705 9.02111C10.2058 14.7972 6.46154 22.6313 6.46154 30.8V78.4H3.23077C2.37392 78.4 1.55216 78.695 0.94627 79.2201C0.340383 79.7452 0 80.4574 0 81.2C0 81.9426 0.340383 82.6548 0.94627 83.1799C1.55216 83.705 2.37392 84 3.23077 84H80.7692C81.6261 84 82.4478 83.705 83.0537 83.1799C83.6596 82.6548 84 81.9426 84 81.2C84 80.4574 83.6596 79.7452 83.0537 79.2201C82.4478 78.695 81.6261 78.4 80.7692 78.4H77.5385V30.8C77.5385 22.6313 73.7942 14.7972 67.1295 9.02111C60.4647 3.24499 51.4254 0 42 0ZM38.7692 33.6V44.8H22.6154V33.6H38.7692ZM61.3846 33.6V44.8H45.2308V33.6H61.3846ZM22.6154 50.4H38.7692V61.6H22.6154V50.4ZM45.2308 50.4H61.3846V61.6H45.2308V50.4ZM22.9062 28C23.6932 24.1064 26.0392 20.5779 29.5316 18.0354C33.0239 15.4928 37.4389 14.0989 42 14.0989C46.5611 14.0989 50.9761 15.4928 54.4684 18.0354C57.9608 20.5779 60.3068 24.1064 61.0938 28H22.9062ZM22.6154 67.2H38.7692V78.4H22.6154V67.2ZM45.2308 78.4V67.2H61.3846V78.4H45.2308ZM67.8462 78.4V30.8C67.8462 24.8591 65.1231 19.1616 60.276 14.9608C55.4289 10.76 48.8548 8.4 42 8.4C35.1452 8.4 28.5711 10.76 23.724 14.9608C18.8769 19.1616 16.1538 24.8591 16.1538 30.8V78.4H12.9231V30.8C12.9231 24.1165 15.9865 17.7068 21.4395 12.9809C26.8925 8.25499 34.2883 5.6 42 5.6C49.7117 5.6 57.1075 8.25499 62.5605 12.9809C68.0135 17.7068 71.0769 24.1165 71.0769 30.8V78.4H67.8462Z" fill="#566465"/>
</svg>
