<svg width="25" height="21" viewBox="0 0 25 21" fill="none" xmlns="http://www.w3.org/2000/svg">
<path d="M23.2422 4.17188C22.9297 4.40625 22.6172 4.60156 22.2656 4.79687C22.3047 5.10938 22.3047 5.46094 22.3047 5.8125C22.3047 10.3438 20.3516 14.4453 17.2656 17.2969C14.8437 19.0938 11.8359 20.1484 8.55469 20.1484C5.70312 20.1484 3.04688 19.3281 0.78125 17.9219C1.25 18 1.71875 18.0391 2.22656 18.0391C4.49219 18.0391 6.5625 17.2578 8.20312 15.9688C6.09375 15.9297 4.29687 14.5234 3.67187 12.5703C3.94531 12.6094 4.25781 12.6484 4.57031 12.6484C5 12.6484 5.39062 12.6094 5.78125 12.4922C4.88281 12.2969 4.10156 11.8281 3.47656 11.2031C2.57812 10.3438 2.03125 9.09375 2.03125 7.76562C2.03125 7.72656 2.03125 7.72656 2.03125 7.6875C2.61719 8 3.24219 8.19531 3.94531 8.27344C3.24219 7.72656 2.65625 6.98437 2.34375 6.125C2.14844 5.57812 2.03125 4.99219 2.03125 4.40625C2.03125 4.17187 2.03125 3.89844 2.07031 3.66406C2.1875 3 2.42187 2.375 2.73437 1.86719C3.08594 2.25781 3.47656 2.64844 3.90625 3.03906C4.10156 3.23437 4.33594 3.39062 4.53125 3.58594C5.74219 4.5625 7.10937 5.34375 8.55469 5.92969C8.75 6.00781 8.90625 6.08594 9.10156 6.125C9.76562 6.35937 10.4297 6.55469 11.1328 6.67188C11.2891 6.71094 11.4453 6.75 11.6016 6.75C11.6797 6.75 11.7187 6.78906 11.7969 6.78906C12.1094 6.82812 12.3828 6.86719 12.6953 6.90625C12.6172 6.55469 12.5391 6.16406 12.5391 5.73437C12.5391 4.09375 13.3594 2.64844 14.6094 1.78906C14.6875 1.71094 14.7656 1.67188 14.8828 1.63281C14.8828 1.63281 14.9219 1.63281 14.9219 1.67187V1.63281C15.6641 1.20313 16.4844 0.929688 17.4219 0.929688C18.8281 0.929688 20.0781 1.51562 20.9766 2.49219C21.2891 2.41406 21.6406 2.33594 21.9531 2.25781C22.3047 2.14062 22.6172 2.0625 22.9297 1.90625C23.3203 1.75 23.6719 1.55469 24.0234 1.35938C23.8281 1.94531 23.5156 2.49219 23.125 2.96094C22.8516 3.27344 22.5391 3.54687 22.2266 3.82031C22.1484 3.85937 22.0703 3.9375 21.9922 3.97656C21.9531 3.97656 21.9531 3.97656 21.9141 3.97656C21.9141 3.97656 21.9141 3.97656 21.9141 4.01562L21.9531 3.97656C22.0312 3.97656 22.1094 3.9375 22.2266 3.9375C22.5781 3.89844 22.8906 3.82031 23.2422 3.74219C23.5937 3.66406 23.9453 3.54687 24.2578 3.42969C23.9062 3.66406 23.5547 3.89844 23.2422 4.17188Z" fill="#056cb0"/>
</svg>
