<svg width="17" height="17" viewBox="0 0 17 17" fill="none" xmlns="http://www.w3.org/2000/svg">
<path d="M4.28234 16.1284L1.01434 16.1114C1.01134 15.8562 1.08659 14.8872 1.06459 14.5707C1.03959 14.2177 1.02984 12.8307 1.02534 12.4857C1.02109 12.1412 1.04809 10.6044 1.05634 10.1754C1.06734 9.60194 1.04559 9.02844 1.04559 8.45494C1.04559 7.62294 1.04559 6.66244 1.04559 5.90719C1.04559 5.90719 3.35409 5.61094 4.21459 5.90719L4.22434 6.42994C4.22309 6.71969 4.21984 7.87369 4.23109 8.15569C4.25734 8.80494 4.31109 9.56194 4.28534 10.2169C4.25984 10.8709 4.27509 11.7739 4.29209 12.4147C4.32934 13.8249 4.30384 14.7989 4.28234 16.1284ZM3.46434 0.924688C2.45459 0.470688 1.08159 1.04819 0.780839 2.15944C0.614339 2.77369 0.825338 3.54744 1.31134 3.89869C3.73709 5.65094 5.92184 2.02944 3.46434 0.924688ZM16.2751 11.2169C16.2741 10.6979 16.1671 9.01919 16.1388 8.69969C16.1166 8.44819 16.1166 8.44819 16.0368 7.92294C15.9871 7.59569 15.7551 7.30594 15.5331 7.06494C14.9001 6.37744 14.2116 6.06994 13.3546 5.77119C12.6543 5.52744 12.0953 5.71444 11.4033 5.80619C10.6108 5.91069 9.39284 7.30419 9.39284 7.30419C9.34484 6.98119 9.39284 6.29919 9.34584 5.90494C8.84159 5.86819 8.41584 5.89619 7.87634 5.87344C7.41009 5.85344 6.87284 5.88269 6.25809 5.87344C6.25809 5.87344 6.23509 7.42644 6.22409 7.88744C6.21284 8.35094 6.22884 8.81544 6.22409 9.27919C6.21559 10.1462 6.27409 11.0814 6.30934 11.9547C6.36659 13.3807 6.28884 14.8812 6.29234 16.2307H6.59909C7.57559 16.2307 8.44984 16.2307 9.42684 16.2307C9.42684 16.2307 9.43559 14.9302 9.40984 14.5612C9.37234 14.0174 9.37559 10.5579 9.42684 9.91044C9.47809 9.26319 10.1641 8.42569 11.2666 8.42844C11.6756 8.42944 12.2268 8.49544 12.5363 8.79469C12.7216 8.97369 12.9713 9.59594 13.0388 10.2472C13.1066 10.8984 13.0723 14.2529 13.0723 16.1967L16.2411 16.2307C16.0483 15.8144 16.2758 11.8092 16.2751 11.2169Z" fill="#056cb0"/>
</svg>
